# xmcd
#
# Track frame offsets:
#	182
#	15160
#	30770
#	42575
#	56307
#	71802
#	79900
#	90830
#	100945
#	113812
#	122335
#	134032
#	145642
#	156805
#	173170
#	188297
#	199220
#	210207
#	223962
#	235915
#
# Disc length: 3282 seconds
#
# Revision: 2
# Processed by: cddbd v1.5.2PL0 Copyright (c) Steve Scherf et al.
# Submitted via: EasyCDDAExtractor 10.0.6.1
#
DISCID=010cd014
DTITLE=Various Artist - The Country Collection
DYEAR=1900
DGENRE=Country
TTITLE0=Anderson, Lynn - Desperado
TTITLE1=Rogers, Kenny - My Washington Woman
TTITLE2=Cash, Johnny - Port Of Lonely Hearts
TTITLE3=Lewis, Jerry Lee - Cold, Cold Heart
TTITLE4=Oak Ridge Boys - Father Alone
TTITLE5=Nelson, Willie - You Wouldn't Cross The Street To Say Goodbye
TTITLE6=Jones, George - I'll Share My World With You
TTITLE7=Rogers, Kenny - Ticket To Nowhere
TTITLE8=Bare, Bobby - Tender Years
TTITLE9=Jennings, Waylon - Abilene
TTITLE10=Boone, Pat - Speedy Gonzales
TTITLE11=Watson, Doc - Tom Dooley
TTITLE12=Cline, Patsy - Just Out Of Reach
TTITLE13=Everly Brothers - I'm Here To Get My Baby Out Of Jail
TTITLE14=Lewis, Jerry Lee - Jambalaya
TTITLE15=Williams, Don - Spend Some Time With Me
TTITLE16=Bare, Bobby - Vampira
TTITLE17=Nelson, Willie - Home Is Where You're Happy
TTITLE18=Anderson, Lynn - You Don't Have To Say You Love Me
TTITLE19=Fender, Freddy - Before The Next Teardrop Falls
EXTD=
EXTT0=
EXTT1=
EXTT2=
EXTT3=
EXTT4=
EXTT5=
EXTT6=
EXTT7=
EXTT8=
EXTT9=
EXTT10=
EXTT11=
EXTT12=
EXTT13=
EXTT14=
EXTT15=
EXTT16=
EXTT17=
EXTT18=
EXTT19=
PLAYORDER=
